<svg id="Vrstva_1" data-name="Vrstva 1" xmlns="http://www.w3.org/2000/svg" viewBox="0 0 253.7 94.96"><defs><style>.cls-1{fill:#1d1d1b;}.cls-2{fill:#fff;}</style></defs><rect class="cls-1" width="253.7" height="94.96" rx="12.76"/><path class="cls-2" d="M151.45,23.81h3.33L156,26.46c.39.83.78,1.67,1.19,2.52l2.14,4.45V23.81h2.77v15h-2.7l-1.27-2.48c-.44-.84-.85-1.66-1.25-2.47S156,32,155.52,31s-.91-1.93-1.32-2.88V38.78h-2.75Z"/><path class="cls-2" d="M169.44,37h0A1.65,1.65,0,0,0,171,36a6.05,6.05,0,0,0,.53-2.78,5.07,5.07,0,0,0-.56-2.63,1.7,1.7,0,0,0-1.48-.9,1.67,1.67,0,0,0-1.48.9,5,5,0,0,0-.56,2.63,5.91,5.91,0,0,0,.54,2.78,1.65,1.65,0,0,0,1.5,1m0,2a4.84,4.84,0,0,1-2-.39A4.34,4.34,0,0,1,166,37.49a5.63,5.63,0,0,1-1-1.82,8.3,8.3,0,0,1-.33-2.43,7.67,7.67,0,0,1,.33-2.33,4.94,4.94,0,0,1,1-1.74,4.2,4.2,0,0,1,1.5-1.1,5,5,0,0,1,2-.38,4.42,4.42,0,0,1,3.5,1.46,6.09,6.09,0,0,1,1.27,4.09,8.3,8.3,0,0,1-.33,2.43,5.63,5.63,0,0,1-1,1.82,4.4,4.4,0,0,1-1.5,1.14,4.86,4.86,0,0,1-2,.39"/><path class="cls-2" d="M177.56,23.55h0l1.79-.1,1.53,1.65,1.53-1.65,1.78.1-2.27,3.25h-2.08Zm6.5,14.7a2.46,2.46,0,0,1-.44.25,4.55,4.55,0,0,1-.67.25c-.26.07-.58.13-.95.19a9.23,9.23,0,0,1-1.24.08,4.85,4.85,0,0,1-1.91-.37,4.51,4.51,0,0,1-1.53-1.09,5.1,5.1,0,0,1-1-1.77,7.39,7.39,0,0,1-.37-2.41,7.59,7.59,0,0,1,.35-2.38,5.11,5.11,0,0,1,1-1.79,4.54,4.54,0,0,1,1.57-1.13,5.22,5.22,0,0,1,2.06-.39,6.2,6.2,0,0,1,1.84.26,4.94,4.94,0,0,1,1.3.61l-.63,2a6.32,6.32,0,0,0-.87-.55,2.79,2.79,0,0,0-1.35-.28,2.29,2.29,0,0,0-1,.21,2.06,2.06,0,0,0-.81.67,3.54,3.54,0,0,0-.55,1.17,6.55,6.55,0,0,0-.2,1.7,4.87,4.87,0,0,0,.21,1.53,3.11,3.11,0,0,0,.58,1.05,2.4,2.4,0,0,0,.87.62,2.84,2.84,0,0,0,1,.2,4.14,4.14,0,0,0,1.51-.25,3.81,3.81,0,0,0,1-.54Z"/><path class="cls-2" d="M185.92,28h2.59v1.29a2.67,2.67,0,0,1,.39-.51,3.38,3.38,0,0,1,.56-.5,3.14,3.14,0,0,1,.75-.39,2.83,2.83,0,0,1,.95-.15,3,3,0,0,1,2.56,1,4.44,4.44,0,0,1,.76,2.73v7.34h-2.71V31.55a2.18,2.18,0,0,0-.33-1.29,1.18,1.18,0,0,0-1-.45,1.48,1.48,0,0,0-1,.38,3.8,3.8,0,0,0-.77,1v7.55h-2.67Z"/><path class="cls-2" d="M197.14,28h2.67V38.78h-2.67Zm1.55-4.5h2.81l-3.38,3.43-1.64-.28Z"/><path class="cls-2" d="M153.79,60.21h0a2.69,2.69,0,0,0,.65.66,1.55,1.55,0,0,0,1,.33,1.66,1.66,0,0,0,1.37-.86,4.92,4.92,0,0,0,.59-2.72,5.24,5.24,0,0,0-.58-2.81,1.71,1.71,0,0,0-1.45-.85,1.49,1.49,0,0,0-1,.31,3.84,3.84,0,0,0-.61.58Zm-2.67-8h2.67V53a3.23,3.23,0,0,1,1-.74,2.93,2.93,0,0,1,1.36-.3,3.5,3.5,0,0,1,3,1.4,6.85,6.85,0,0,1,1.07,4.17,7.21,7.21,0,0,1-1.07,4.33,3.4,3.4,0,0,1-2.85,1.43,3.09,3.09,0,0,1-.92-.13,2.79,2.79,0,0,1-.68-.29,1.93,1.93,0,0,1-.49-.38,3.26,3.26,0,0,1-.32-.39v5.37h-2.67Z"/><path class="cls-2" d="M162.34,52.19h2.59v1.69a4.23,4.23,0,0,1,.44-.69,3.3,3.3,0,0,1,.59-.59,2.73,2.73,0,0,1,.8-.4,3.32,3.32,0,0,1,1.05-.15,3,3,0,0,1,.71.06l-.24,2.22a1.59,1.59,0,0,0-.3-.06,2.12,2.12,0,0,0-.38,0,2.94,2.94,0,0,0-1.51.37A3,3,0,0,0,165,55.9V63h-2.67Zm-.12-4.4,1.79-.1,1.53,1.65,1.53-1.65,1.78.1L166.58,51H164.5Z"/><path class="cls-2" d="M175,56.21h0c0-1.63-.54-2.45-1.49-2.45a1.4,1.4,0,0,0-1.15.59,3.39,3.39,0,0,0-.55,1.86Zm2.48,6.06a4.19,4.19,0,0,1-1.33.71,6.68,6.68,0,0,1-2.09.28,4.93,4.93,0,0,1-2-.41,4.29,4.29,0,0,1-1.57-1.15,5,5,0,0,1-1-1.79,6.92,6.92,0,0,1-.36-2.29,6.62,6.62,0,0,1,1.18-4.2,3.89,3.89,0,0,1,3.23-1.49,3.7,3.7,0,0,1,3.07,1.28,5.4,5.4,0,0,1,1,3.46q0,.36,0,.75a4,4,0,0,1-.06.61H171.8a3.41,3.41,0,0,0,.27,1.25,3.32,3.32,0,0,0,.64,1,3,3,0,0,0,.91.64,2.5,2.5,0,0,0,1.08.23,3.69,3.69,0,0,0,2.61-1Z"/><path class="cls-2" d="M179.51,60.13a7.79,7.79,0,0,0,1.38.77,3.82,3.82,0,0,0,1.62.36,3.29,3.29,0,0,0,.54,0,1.6,1.6,0,0,0,.48-.17,1.1,1.1,0,0,0,.34-.34,1,1,0,0,0,.13-.53,1.13,1.13,0,0,0-.49-1,6.18,6.18,0,0,0-1.24-.65,11.2,11.2,0,0,1-1.1-.53,4.2,4.2,0,0,1-.9-.69,3,3,0,0,1-.62-.93,3.46,3.46,0,0,1-.22-1.26,2.75,2.75,0,0,1,.33-1.35,3.3,3.3,0,0,1,.85-1,3.92,3.92,0,0,1,1.24-.63,4.73,4.73,0,0,1,1.45-.23,6.28,6.28,0,0,1,1.72.21,6.94,6.94,0,0,1,1.33.5L186,54.71a6.62,6.62,0,0,0-1.19-.6,3.67,3.67,0,0,0-1.42-.27,1.71,1.71,0,0,0-.92.28.89.89,0,0,0-.43.79,1,1,0,0,0,.11.47,1.1,1.1,0,0,0,.32.38,2.49,2.49,0,0,0,.59.36c.24.13.55.26.9.41s.7.32,1,.5a3.94,3.94,0,0,1,.87.67,2.85,2.85,0,0,1,.61.91,3.11,3.11,0,0,1,.22,1.23,3.06,3.06,0,0,1-1.1,2.53,4.6,4.6,0,0,1-3,.89,7.19,7.19,0,0,1-1.83-.21,7.45,7.45,0,0,1-1.55-.58Z"/><path class="cls-2" d="M189.22,53.82h-1.47V52.19h1.47v-2L191.89,49v3.23h2.43v1.63h-2.43v5.56a2.49,2.49,0,0,0,.27,1.37,1,1,0,0,0,.92.39,2.17,2.17,0,0,0,.71-.1c.21-.06.42-.14.65-.23l-.2,2.08-.82.24a4.23,4.23,0,0,1-1.18.13,2.83,2.83,0,0,1-2.24-.87,3.62,3.62,0,0,1-.78-2.53Z"/><path class="cls-2" d="M196,52.19h2.72V59.4a2.15,2.15,0,0,0,.32,1.28,1.19,1.19,0,0,0,1,.46,1.48,1.48,0,0,0,1-.39,4,4,0,0,0,.77-1V52.19h2.67V63H202V61.7c-.11.16-.24.33-.4.52a3.12,3.12,0,0,1-1.3.88,2.59,2.59,0,0,1-.95.16,3.88,3.88,0,0,1-1.53-.27,2.46,2.46,0,0,1-1-.75,3.2,3.2,0,0,1-.58-1.2A5.7,5.7,0,0,1,196,59.5Z"/><path class="cls-2" d="M210,60.21h0a2.69,2.69,0,0,0,.65.66,1.55,1.55,0,0,0,1,.33,1.66,1.66,0,0,0,1.37-.86,4.93,4.93,0,0,0,.58-2.72,5.25,5.25,0,0,0-.57-2.81,1.71,1.71,0,0,0-1.45-.85,1.47,1.47,0,0,0-1,.31,3.84,3.84,0,0,0-.61.58Zm-2.67-8H210V53a3.23,3.23,0,0,1,.95-.74,2.93,2.93,0,0,1,1.36-.3,3.5,3.5,0,0,1,2.95,1.4,6.85,6.85,0,0,1,1.07,4.17,7.21,7.21,0,0,1-1.07,4.33,3.41,3.41,0,0,1-2.85,1.43,3.09,3.09,0,0,1-.92-.13,2.79,2.79,0,0,1-.68-.29,1.93,1.93,0,0,1-.49-.38,3.26,3.26,0,0,1-.32-.39v5.37h-2.67Z"/><path class="cls-2" d="M78.39,56.24c-4.43-14,3-29.11,17.07-36.84A41.49,41.49,0,0,0,87.4,21C68.64,26.86,57.61,44.79,62.77,61.09s24.54,24.78,43.31,19a40.81,40.81,0,0,0,7.56-3.21c-16,1.58-30.83-6.63-35.25-20.59"/><polygon class="cls-2" points="53.11 10.01 55.98 15.77 62.41 16.7 57.76 21.19 58.86 27.52 53.11 24.53 47.36 27.52 48.46 21.19 43.81 16.7 50.23 15.77 53.11 10.01"/><polygon class="cls-2" points="47.67 67.11 49.95 71.65 55 72.38 51.34 75.92 52.2 80.92 47.67 78.56 43.15 80.92 44.02 75.92 40.34 72.38 45.41 71.65 47.67 67.11"/><polygon class="cls-2" points="117.57 25.86 120.9 28.68 125.13 27.58 123.44 31.58 125.82 35.22 121.45 34.87 118.69 38.24 117.67 34.02 113.58 32.45 117.32 30.2 117.57 25.86"/></svg>