<svg id="Vrstva_1" data-name="Vrstva 1" xmlns="http://www.w3.org/2000/svg" viewBox="0 0 253.7 94.96"><defs><style>.cls-1{fill:#009e4b;}.cls-2{fill:#fff;}</style></defs><rect class="cls-1" width="253.7" height="94.96" rx="12.76"/><path class="cls-2" d="M177.67,52.4c-.69-2.31-1.44-4.8-2.27-7.48s-1.57-5.2-2.26-7.56q-.4-1.5-.84-3a16.83,16.83,0,0,1-.59-2.83,18,18,0,0,1-.6,2.83l-.84,2.92c-.74,2.52-1.53,5.09-2.39,7.72l-2.38,7.4ZM147,76.91q4.62-14.89,9.23-29.47t9.79-29.38h11.85q5.18,14.73,9.78,29.34t9.15,29.51H185.15c-.8-2.84-1.61-5.62-2.42-8.36s-1.64-5.27-2.43-7.64H162.87l-5,16Z"/><path class="cls-2" d="M92.13,71.09,68.86,46.62h13.7l0-21L91.9,36.76l9.61-11.45V46.62h14.28Zm18-32V13.47l-8.42,0L92,24.94,82.79,13.5l-8.14,0-.11,25.59H59.62l0,7.7L92,82.39l33.57-35.63v-7.7Z"/></svg>