<svg id="Vrstva_1" data-name="Vrstva 1" xmlns="http://www.w3.org/2000/svg" viewBox="0 0 94.96 94.96"><defs><style>.cls-1{fill:#fff;}.cls-2{fill:#203360;}.cls-3{fill:#109cd9;}</style></defs><rect class="cls-1" width="94.96" height="94.96" rx="12.76"/><path class="cls-2" d="M31.45,61.61A36.52,36.52,0,0,0,45.25,64c6.22,0,9.07-1.91,9.07-5.11,0-8.47-24.58-6.19-24.58-23.89,0-10,9.44-14.4,18.58-14.4a36.3,36.3,0,0,1,10.21,1.28l2.85-7.84a35.58,35.58,0,0,0-13.9-2.82A36.28,36.28,0,0,0,26,76.51Z" transform="translate(0 -0.28)"/><path class="cls-3" d="M67.07,17.11,61.36,33S54,30.73,48.69,30.73s-6.8,2-6.8,4.2c0,6.93,25,6.93,25,23.55,0,11.43-10.83,15.85-21.51,15.85A43.32,43.32,0,0,1,34.09,73L31.59,80a35.41,35.41,0,0,0,15.9,3.77A36.3,36.3,0,0,0,67.07,17.11" transform="translate(0 -0.28)"/></svg>