<svg id="Vrstva_1" data-name="Vrstva 1" xmlns="http://www.w3.org/2000/svg" viewBox="0 0 253.7 94.96"><defs><style>.cls-1{fill:#713b26;}.cls-2{fill:#fff;}</style></defs><rect class="cls-1" width="253.7" height="94.96" rx="12.76"/><path class="cls-2" d="M122,74.46a15.85,15.85,0,0,1-8.87,2.69A16.1,16.1,0,0,1,107,75.91a15.82,15.82,0,0,1-7-5.7,15.59,15.59,0,0,1-2.71-8.78,15.85,15.85,0,0,1,1.25-6.11,15.67,15.67,0,0,1,4-5.59l7.47,15,.42.84.89-.36,5.49-2.35,1-.41-.48-1L109.75,46.1a15.73,15.73,0,0,1,3.39-.38A15.9,15.9,0,0,1,119.32,47a15.7,15.7,0,0,1,7,5.7,15.52,15.52,0,0,1,1.47,14.88A15.81,15.81,0,0,1,122,74.46M41.25,57.75,46,51.19a16.36,16.36,0,0,1,1.13,1.47,15.65,15.65,0,0,1,2.27,5.09Zm7.36,9.79A15.89,15.89,0,0,1,34,77.15a15.9,15.9,0,0,1-13.15-6.94,15.43,15.43,0,0,1-2.71-8.78,15.26,15.26,0,0,1,1.26-6.11,15.62,15.62,0,0,1,5.73-6.9A15.88,15.88,0,0,1,40,46.89L30.84,59.44l-.34.46.24.53,1.9,4.1.26.58H49.42a16.77,16.77,0,0,1-.81,2.42m6.18-28.41,13,18.62H57a21.8,21.8,0,0,0-1.53-5.3,23,23,0,0,0-5-7.35Zm35.07-4.62L75,55,60.62,34.51Zm44.76,17.94a23,23,0,0,0-8.44-10.16,23.43,23.43,0,0,0-13-3.93,23.7,23.7,0,0,0-6.8,1l-5.55-11.22v-9l-.27-.28-7.45-7.61-.7-.73-.73.7-3.71,3.58-.71.7.69.71L93.6,22v5.4h-38l-1.47-2.11h2.72a3.69,3.69,0,0,0,0-7.38l-16.52-.7a3.71,3.71,0,0,0-3.71,3.7c0,2,1.61,4.38,3.71,4.38h4.7l5.18,7.42-5.89,8.1A23.43,23.43,0,0,0,34,38.36,23.4,23.4,0,0,0,14.67,48.52a22.85,22.85,0,0,0-4,12.91,22.58,22.58,0,0,0,1.84,9A23,23,0,0,0,21,80.57a23.43,23.43,0,0,0,32.36-6.23A23,23,0,0,0,57,65.12l19.51-.06H77l.31-.42L96.65,37.82,99.18,43a23,23,0,0,0-9.33,18.47,22.37,22.37,0,0,0,1.83,9A23.26,23.26,0,0,0,113.14,84.5a23.3,23.3,0,0,0,19.34-10.16,22.89,22.89,0,0,0,2.14-21.89"/><path class="cls-2" d="M240,54.25h0v20c0,5.6-7.51,3.73-10.82,3.73v7.23h-6.25V77.93h-14v7.23h-6.25V77.93c-3.31,0-10.82,1.87-10.82-3.73v-20c0-1.27.06-2.54.17-3.81L193.85,30c.22-2.43,1.28-3.39,3.75-3.39h13L214.4,16H204.19l-2.42,2.39L197.35,14l4.25-4.21h28.62L234.46,14,230,18.38,227.62,16H221l-3.85,10.6h17c2.47,0,3.53,1,3.75,3.39l1.86,20.44c.11,1.27.18,2.55.18,3.83m-6.69,15.9a4,4,0,0,0-2.8-6.91V53.72c0-1,0-1.9-.13-2.87q-.63-6.81-1.28-13.6H202.71c-.42,4.66-.86,9.34-1.28,14-.08,1-.13,1.92-.13,2.87v9.12a4,4,0,0,0-2.8,6.91,4.08,4.08,0,0,0,6.94-2.87h20.94a4.07,4.07,0,0,0,6.93,2.87"/><path class="cls-2" d="M158.82,60.74l4.91,4.87L182,47.48l-18.3-18.13-4.91,4.87,8,8.07c.82.84.44,1.75-.75,1.75H146.36v6.88h19.71c1.19,0,1.57.92.75,1.75Z"/></svg>