<svg id="Vrstva_1" data-name="Vrstva 1" xmlns="http://www.w3.org/2000/svg" viewBox="0 0 253.7 94.96"><defs><style>.cls-1{fill:#cd7213;}.cls-2{fill:#fff;}</style></defs><rect class="cls-1" width="253.7" height="94.96" rx="12.76"/><path class="cls-2" d="M171.5,22.42c0-2.43-1.43-3.16-3.46-3.58l-13.61.25L85.05,39.66c-2.5.8-2.87,2.88-2.85,5.24V82.21l89.28-26.35Zm-33.23,6.1h10.37a1.88,1.88,0,0,1,1.8,1.92V44.6a1.9,1.9,0,0,1-1.8,2H138.27a1.91,1.91,0,0,1-1.85-2V30.44a1.89,1.89,0,0,1,1.85-1.92m-17,5.25h10.37a1.89,1.89,0,0,1,1.84,1.93V49.86a1.88,1.88,0,0,1-1.84,1.91H121.26a1.89,1.89,0,0,1-1.85-1.91V35.7a1.9,1.9,0,0,1,1.85-1.93m-16.69,5h10.37a1.89,1.89,0,0,1,1.8,1.93V54.82a1.9,1.9,0,0,1-1.8,2H104.57a1.9,1.9,0,0,1-1.84-2V40.66a1.89,1.89,0,0,1,1.84-1.93m-17,4.58H97.88a1.89,1.89,0,0,1,1.81,2V59.43a1.89,1.89,0,0,1-1.81,1.93H87.52a1.89,1.89,0,0,1-1.84-1.93V45.27a1.89,1.89,0,0,1,1.84-2m67.75-20h10.38a1.9,1.9,0,0,1,1.8,2V39.39a1.89,1.89,0,0,1-1.8,1.92H155.27a1.88,1.88,0,0,1-1.83-1.92V25.24a1.9,1.9,0,0,1,1.83-2"/></svg>