<svg id="Vrstva_1" data-name="Vrstva 1" xmlns="http://www.w3.org/2000/svg" viewBox="0 0 253.7 94.96"><defs><style>.cls-1{fill:#f9b424;}.cls-2{fill:#010101;}</style></defs><rect class="cls-1" width="253.7" height="94.96" rx="12.76"/><path class="cls-2" d="M171.67,67.84q6,0,8.75-2.12c1.86-1.42,2.79-3.58,2.79-6.46a8.25,8.25,0,0,0-2.75-6.66q-2.75-2.33-9.34-2.33H167.7V67.84ZM170,41.53a22.52,22.52,0,0,0,5.21-.51,9,9,0,0,0,3.34-1.46,5.23,5.23,0,0,0,1.76-2.28,8.65,8.65,0,0,0,.51-3.08,6.4,6.4,0,0,0-2.38-5.39Q176,27,170.48,27H167.7V41.53ZM156.72,18.29H169.6a52.89,52.89,0,0,1,5.57.27c1.7.19,3.27.41,4.7.67A16.18,16.18,0,0,1,188.94,24a13.37,13.37,0,0,1,3.26,9.3,14.06,14.06,0,0,1-.8,5,11.31,11.31,0,0,1-2,3.5,10.12,10.12,0,0,1-2.7,2.25,13.44,13.44,0,0,1-2.82,1.22,21.19,21.19,0,0,1,4.09,1.85,14.34,14.34,0,0,1,3.5,2.88,13.11,13.11,0,0,1,2.47,4.09,14.77,14.77,0,0,1,.91,5.36,16.21,16.21,0,0,1-1.55,7.21,15,15,0,0,1-4.41,5.4A20.88,20.88,0,0,1,182,75.49,32,32,0,0,1,173,76.67H156.72Z"/><path class="cls-2" d="M91.88,70.73,68.82,46.48H82.39l0-20.81,9.29,11,9.53-11.34V46.48h14.15ZM109.76,39V13.64l-8.35,0L91.79,25,82.63,13.66l-8.07,0L74.45,39H59.66l0,7.63L91.75,81.93,125,46.61V39Z"/></svg>