<?xml version="1.0" encoding="utf-8"?>
<!-- Generator: Adobe Illustrator 25.0.0, SVG Export Plug-In . SVG Version: 6.00 Build 0)  -->
<svg version="1.1" id="Vrstva_1" xmlns="http://www.w3.org/2000/svg" xmlns:xlink="http://www.w3.org/1999/xlink" x="0px" y="0px"
	 viewBox="0 0 253.7 95" style="enable-background:new 0 0 253.7 95;" xml:space="preserve">
<style type="text/css">
	.st0{fill:#FFFFFF;}
	.st1{fill:#203360;}
	.st2{fill:#109CD9;}
</style>
<g>
	<path class="st0" d="M240.9,95H12.8C5.7,95,0,89.2,0,82.2V12.8C0,5.7,5.7,0,12.8,0h228.2c7,0,12.8,5.7,12.8,12.8v69.4
		C253.7,89.2,248,95,240.9,95z"/>
</g>
<path class="st1" d="M111.3,61c4.3,1.6,8.8,2.4,13.4,2.3c6,0,8.8-1.8,8.8-4.9c0-8.1-23.8-5.9-23.8-22.8c0-9.6,9.1-13.7,18-13.7
	c3.3-0.1,6.7,0.4,9.9,1.2l2.8-7.5c-17.8-7.4-38.2,1-45.6,18.7c-1.7,4.1-2.6,8.6-2.7,13.1c0,10.9,5.2,21.2,14,27.7L111.3,61z"/>
<path class="st2" d="M145.8,18.5l-5.5,15.1c0,0-7.2-2.2-12.3-2.2s-6.6,1.9-6.6,4c0,6.6,24.2,6.6,24.2,22.4
	c0,10.9-10.5,15.1-20.8,15.1c-3.7,0.1-7.4-0.4-11-1.2l-2.4,6.6c17,8.6,37.8,1.8,46.5-15.2C165.9,47.4,160.7,28.1,145.8,18.5"/>
</svg>
