<svg id="Vrstva_1" data-name="Vrstva 1" xmlns="http://www.w3.org/2000/svg" viewBox="0 0 253.7 94.96"><defs><style>.cls-1{fill:#cf1040;}.cls-2{fill:#fff;}</style></defs><rect class="cls-1" width="253.7" height="94.96" rx="12.76"/><path class="cls-2" d="M195.61,73.28a29.25,29.25,0,0,1-7.28,3.19,34.46,34.46,0,0,1-9.5,1.14A28.69,28.69,0,0,1,167,75.37a21.9,21.9,0,0,1-8.19-6.27,26.3,26.3,0,0,1-4.77-9.53,44.1,44.1,0,0,1-1.56-12,42.75,42.75,0,0,1,1.64-12.1A26.92,26.92,0,0,1,159,25.85a22.2,22.2,0,0,1,8.19-6.26,27.79,27.79,0,0,1,11.62-2.25,35,35,0,0,1,5.77.44,35.71,35.71,0,0,1,4.65,1.06,25.5,25.5,0,0,1,3.62,1.38,25.07,25.07,0,0,1,2.66,1.46L193,31.05a17.87,17.87,0,0,0-5.57-3.31,21.58,21.58,0,0,0-7.88-1.34,14.25,14.25,0,0,0-5.88,1.26,13.57,13.57,0,0,0-4.9,3.83,18.68,18.68,0,0,0-3.3,6.49,32.82,32.82,0,0,0-1.19,9.38,29.73,29.73,0,0,0,1.23,8.94,20.74,20.74,0,0,0,3.38,6.62,14.2,14.2,0,0,0,11.46,5.55A19.6,19.6,0,0,0,194.66,63Z"/><path class="cls-2" d="M90.34,70.44,67.27,46.19H80.85l0-20.8,9.3,11,9.53-11.34V46.19h14.14ZM108.21,38.7V13.35l-8.34,0L90.24,24.72,81.08,13.38l-8.07,0-.1,25.35H58.12l0,7.63L90.2,81.64l33.27-35.31V38.7Z"/></svg>